#!OML:ASF H:\Dans Jumps\Project 1\Capture day 1\Session 1\subject.ASF
:FULLY-SPECIFIED
:DEGREES
409
root 0.495254 17.7267 -1.79099 7.33794 1.00624 -0.693999
lowerback -0.887821 -0.284263 -0.827003
upperback 4.43157 -0.418775 1.57789
thorax 5.09328 -0.278972 2.07473
lowerneck -12.4074 -0.0250741 -1.93299
upperneck 35.7672 0.18348 0.906819
head 14.3311 -0.0551977 0.743175
rclavicle 7.85199e-015 1.70955e-014
rhumerus -18.3549 -21.6714 -81.7851
rradius 21.4278
rwrist 37.0893
rhand -20.0903 -26.2832
rfingers 7.12502
rthumb 6.25259 -56.1709
lclavicle 7.85199e-015 1.70955e-014
lhumerus -17.8443 0.422512 89.3364
lradius 16.0995
lwrist -0.159501
lhand -26.1319 -5.90432
lfingers 7.12502
lthumb 0.418329 24.075
rfemur -15.8239 -2.80999 18.7307
rtibia 24.5508
rfoot -13.8904 -2.24537
rtoes 11.1154
lfemur -14.8025 6.77574 -18.502
ltibia 19.9961
lfoot -10.0305 4.53409
ltoes 3.64169
410
root 0.495143 17.7268 -1.78783 7.33851 1.01657 -0.692313
lowerback -0.893598 -0.293222 -0.828432
upperback 4.43432 -0.43073 1.57811
thorax 5.1 -0.285047 2.07512
lowerneck -12.4098 -0.0207139 -1.93092
upperneck 35.7438 0.195038 0.890945
head 14.3207 -0.0519938 0.737906
rclavicle 1.98785e-015 -1.78906e-014
rhumerus -18.4135 -21.6405 -81.8179
rradius 21.4131
rwrist 37.0917
rhand -20.0949 -26.2774
rfingers 7.12502
rthumb 6.24824 -56.1652
lclavicle 1.98785e-015 -1.78906e-014
lhumerus -17.9035 0.458775 89.3494
lradius 16.049
lwrist -0.26202
lhand -26.0239 -5.72758
lfingers 7.12502
lthumb 0.522693 24.2515
rfemur -15.8054 -2.81914 18.7296
rtibia 24.5416
rfoot -13.8989 -2.24712
rtoes 11.1162
lfemur -14.7841 6.78124 -18.5029
ltibia 19.98
lfoot -10.0367 4.51934
ltoes 3.63898
411
root 0.494862 17.7268 -1.78492 7.33905 1.02741 -0.693239
lowerback -0.897082 -0.302796 -0.829277
upperback 4.4379 -0.443592 1.57958
thorax 5.10633 -0.291582 2.07644
lowerneck -12.4169 -0.014842 -1.92698
upperneck 35.7236 0.209021 0.873365
head 14.3127 -0.0477541 0.73203
rclavicle -9.93923e-017 -6.75868e-015
rhumerus -18.471 -21.6158 -81.8496
rradius 21.3969
rwrist 37.1037
rhand -20.0945 -26.2728
rfingers 7.12502
rthumb 6.24854 -56.1606
lclavicle -9.93923e-017 -6.75868e-015
lhumerus -17.9529 0.489911 89.3639
lradius 15.9957
lwrist -0.361738
lhand -25.9126 -5.54039
lfingers 7.12502
lthumb 0.63017 24.4384
rfemur -15.7895 -2.82269 18.732
rtibia 24.5355
rfoot -13.9082 -2.25417
rtoes 11.1256
lfemur -14.7718 6.78259 -18.5
ltibia 19.9725
lfoot -10.043 4.50912
ltoes 3.63177
412
root 0.49449 17.7266 -1.78211 7.3388 1.03618 -0.696457
lowerback -0.899907 -0.311588 -0.829179
upperback 4.44218 -0.455488 1.58191
thorax 5.11298 -0.297625 2.07816
lowerneck -12.4227 -0.00913907 -1.92451
upperneck 35.7061 0.222426 0.857733
head 14.3058 -0.0437162 0.727142
rclavicle 8.05078e-015 -1.86858e-014
rhumerus -18.5319 -21.586 -81.8807
rradius 21.3871
rwrist 37.1107
rhand -20.0935 -26.2693
rfingers 7.12502
rthumb 6.24956 -56.1571
lclavicle 8.05078e-015 -1.86858e-014
lhumerus -17.9948 0.515752 89.3799
lradius 15.94
lwrist -0.460111
lhand -25.8018 -5.3435
lfingers 7.12502
lthumb 0.73713 24.635
rfemur -15.7749 -2.82345 18.7371
rtibia 24.5315
rfoot -13.9186 -2.26248
rtoes 11.1268
lfemur -14.764 6.78103 -18.4942
ltibia 19.974
lfoot -10.0512 4.5055
ltoes 3.62393
413
root 0.493979 17.7263 -1.77953 7.33869 1.04331 -0.702567
lowerback -0.900793 -0.318978 -0.827285
upperback 4.44647 -0.465583 1.58438
thorax 5.11844 -0.302692 2.07914
lowerneck -12.4335 -0.00363555 -1.921
upperneck 35.6956 0.234739 0.843877
head 14.3032 -0.0398134 0.722704
rclavicle 2.68359e-015 -1.59028e-014
rhumerus -18.5936 -21.5636 -81.9105
rradius 21.38
rwrist 37.1243
rhand -20.0857 -26.2643
rfingers 7.12502
rthumb 6.25711 -56.1519
lclavicle 2.68359e-015 -1.59028e-014
lhumerus -18.0318 0.53285 89.3967
lradius 15.8858
lwrist -0.550477
lhand -25.7189 -5.19658
lfingers 7.12502
lthumb 0.817281 24.7816
rfemur -15.7628 -2.81953 18.7457
rtibia 24.5292
rfoot -13.9281 -2.27434
rtoes 11.122
lfemur -14.7615 6.77732 -18.4847
ltibia 19.9838
lfoot -10.0599 4.50717
ltoes 3.61441
414
root 0.493406 17.726 -1.77713 7.33626 1.04904 -0.713004
lowerback -0.899151 -0.324814 -0.822073
upperback 4.4521 -0.473786 1.58803
thorax 5.12376 -0.306718 2.07958
lowerneck -12.4447 0.00119372 -1.91715
upperneck 35.6884 0.24527 0.831996
head 14.3023 -0.0363795 0.718769
rclavicle 1.78906e-015 -3.97569e-016
rhumerus -18.6549 -21.5501 -81.9383
rradius 21.3754
rwrist 37.1462
rhand -20.0696 -26.267
rfingers 7.12502
rthumb 6.2726 -56.1541
lclavicle 1.78906e-015 -3.97569e-016
lhumerus -18.062 0.542989 89.4156
lradius 15.833
lwrist -0.629559
lhand -25.6636 -5.0903
lfingers 7.12502
lthumb 0.870683 24.8877
rfemur -15.7504 -2.81383 18.7592
rtibia 24.5288
rfoot -13.9378 -2.28604
rtoes 11.1188
lfemur -14.7603 6.77065 -18.4696
ltibia 20.0004
lfoot -10.0693 4.51416
ltoes 3.60613
415
root 0.492889 17.7255 -1.77479 7.3326 1.05327 -0.723011
lowerback -0.89598 -0.329176 -0.817258
upperback 4.45753 -0.479994 1.59148
thorax 5.12791 -0.309754 2.08014
lowerneck -12.4556 0.00454945 -1.91509
upperneck 35.6847 0.25275 0.823937
head 14.303 -0.0339947 0.716268
rclavicle 8.94531e-016 3.18055e-015
rhumerus -18.7165 -21.5387 -81.964
rradius 21.3705
rwrist 37.1665
rhand -20.051 -26.2722
rfingers 7.12502
rthumb 6.29055 -56.1588
lclavicle 8.94531e-016 3.18055e-015
lhumerus -18.0874 0.550597 89.4357
lradius 15.7791
lwrist -0.704364
lhand -25.6396 -5.0451
lfingers 7.12502
lthumb 0.893877 24.9328
rfemur -15.7384 -2.81182 18.7718
rtibia 24.5308
rfoot -13.9474 -2.29337
rtoes 11.1131
lfemur -14.7601 6.76179 -18.4552
ltibia 20.0224
lfoot -10.0813 4.52636
ltoes 3.59168
416
root 0.492313 17.725 -1.77266 7.32939 1.05543 -0.732873
lowerback -0.890849 -0.332075 -0.813875
upperback 4.46195 -0.484214 1.59554
thorax 5.12982 -0.311853 2.08225
lowerneck -12.4651 0.00795389 -1.91212
upperneck 35.6826 0.260132 0.81562
head 14.3041 -0.0315651 0.713499
rclavicle 1.98785e-016 3.18055e-015
rhumerus -18.7789 -21.5325 -81.9859
rradius 21.3651
rwrist 37.192
rhand -20.0328 -26.2786
rfingers 7.12502
rthumb 6.30817 -56.1646
lclavicle 1.98785e-016 3.18055e-015
lhumerus -18.1079 0.564005 89.4562
lradius 15.7263
lwrist -0.781319
lhand -25.6392 -5.05885
lfingers 7.12502
lthumb 0.894199 24.919
rfemur -15.7298 -2.80813 18.7845
rtibia 24.5355
rfoot -13.9564 -2.30085
rtoes 11.1032
lfemur -14.7623 6.75095 -18.4407
ltibia 20.0476
lfoot -10.0929 4.5433
ltoes 3.57249
417
root 0.491745 17.7244 -1.77059 7.32602 1.05685 -0.743069
lowerback -0.885166 -0.333849 -0.809709
upperback 4.46577 -0.486955 1.59971
thorax 5.13071 -0.313174 2.08412
lowerneck -12.469 0.0105564 -1.91166
upperneck 35.6774 0.265914 0.810106
head 14.3025 -0.029747 0.712029
rclavicle 5.96354e-015 1.03368e-014
rhumerus -18.8417 -21.5269 -82.0058
rradius 21.3597
rwrist 37.2095
rhand -20.0149 -26.2882
rfingers 7.12502
rthumb 6.32539 -56.1737
lclavicle 5.96354e-015 1.03368e-014
lhumerus -18.1229 0.577034 89.4775
lradius 15.6743
lwrist -0.857237
lhand -25.6271 -5.05357
lfingers 7.12502
lthumb 0.905932 24.9243
rfemur -15.7225 -2.80677 18.7976
rtibia 24.5429
rfoot -13.9654 -2.30521
rtoes 11.096
lfemur -14.7654 6.73942 -18.4259
ltibia 20.0747
lfoot -10.1066 4.56204
ltoes 3.55531
418
root 0.491135 17.7238 -1.76858 7.32261 1.05558 -0.752155
lowerback -0.879076 -0.334006 -0.806657
upperback 4.46904 -0.487466 1.60331
thorax 5.1307 -0.313411 2.08615
lowerneck -12.4663 0.0129007 -1.91229
upperneck 35.6681 0.270672 0.806831
head 14.2975 -0.028172 0.711454
rclavicle -6.65929e-015 4.37326e-015
rhumerus -18.9033 -21.526 -82.0234
rradius 21.3505
rwrist 37.2234
rhand -19.9996 -26.291
rfingers 7.12502
rthumb 6.34016 -56.1761
lclavicle -6.65929e-015 4.37326e-015
lhumerus -18.1344 0.592782 89.4987
lradius 15.6257
lwrist -0.933848
lhand -25.6143 -5.0622
lfingers 7.12502
lthumb 0.918272 24.9156
rfemur -15.7171 -2.80486 18.8097
rtibia 24.5526
rfoot -13.9767 -2.30768
rtoes 11.0879
lfemur -14.7686 6.72952 -18.4124
ltibia 20.1031
lfoot -10.1218 4.58206
ltoes 3.53368
419
root 0.490437 17.7231 -1.76669 7.31976 1.05213 -0.763523
lowerback -0.873751 -0.332592 -0.801406
upperback 4.47211 -0.485967 1.6072
thorax 5.13081 -0.312563 2.08733
lowerneck -12.458 0.0151704 -1.91104
upperneck 35.6533 0.275317 0.801757
head 14.2887 -0.0265837 0.709732
rclavicle 5.76476e-015 -7.15625e-015
rhumerus -18.9653 -21.5333 -82.0381
rradius 21.3395
rwrist 37.2392
rhand -19.9872 -26.2891
rfingers 7.12502
rthumb 6.35214 -56.1739
lclavicle 5.76476e-015 -7.15625e-015
lhumerus -18.141 0.605545 89.5202
lradius 15.5837
lwrist -1.00678
lhand -25.6021 -5.07541
lfingers 7.12502
lthumb 0.930089 24.9023
rfemur -15.7138 -2.80015 18.8246
rtibia 24.5639
rfoot -13.9885 -2.30947
rtoes 11.0836
lfemur -14.773 6.72229 -18.3963
ltibia 20.1315
lfoot -10.1356 4.60235
ltoes 3.50415
420
root 0.489751 17.7223 -1.76477 7.31701 1.04616 -0.77309
lowerback -0.871444 -0.330071 -0.796686
upperback 4.4764 -0.482928 1.60983
thorax 5.13384 -0.310973 2.08759
lowerneck -12.4431 0.017147 -1.90926
upperneck 35.6311 0.279407 0.796166
head 14.275 -0.0251729 0.707541
rclavicle 4.96962e-015 3.97569e-016
rhumerus -19.0257 -21.5377 -82.0534
rradius 21.3319
rwrist 37.248
rhand -19.9756 -26.2884
rfingers 7.12502
rthumb 6.36334 -56.1728
lclavicle 4.96962e-015 3.97569e-016
lhumerus -18.1415 0.623239 89.5404
lradius 15.5474
lwrist -1.08102
lhand -25.5687 -5.04748
lfingers 7.12502
lthumb 0.962308 24.9301
rfemur -15.7108 -2.79772 18.8374
rtibia 24.5757
rfoot -14.0022 -2.30653
rtoes 11.0774
lfemur -14.777 6.71758 -18.3827
ltibia 20.1598
lfoot -10.15 4.62282
ltoes 3.47436
421
root 0.489108 17.7216 -1.76287 7.316 1.03704 -0.778363
lowerback -0.87126 -0.327386 -0.795545
upperback 4.47998 -0.47947 1.61099
thorax 5.13735 -0.309289 2.08835
lowerneck -12.4237 0.0196038 -1.90907
upperneck 35.6046 0.284338 0.791089
head 14.2583 -0.0235185 0.70592
rclavicle -4.96962e-016 -4.37326e-015
rhumerus -19.0838 -21.5478 -82.0671
rradius 21.3223
rwrist 37.2672
rhand -19.9688 -26.2797
rfingers 7.12502
rthumb 6.36998 -56.1639
lclavicle -4.96962e-016 -4.37326e-015
lhumerus -18.1395 0.644724 89.5592
lradius 15.5194
lwrist -1.15197
lhand -25.5438 -5.02991
lfingers 7.12502
lthumb 0.986387 24.9476
rfemur -15.7094 -2.79787 18.8452
rtibia 24.5869
rfoot -14.0159 -2.29786
rtoes 11.0709
lfemur -14.7821 6.71534 -18.3747
ltibia 20.1875
lfoot -10.1633 4.64372
ltoes 3.44975
